mtllib Smartphone.mtl

v -0.04457831 0 0.1126374
v -0.04669452 0 0.111439
v -0.04841423 0 0.1097193
v -0.04961264 0 0.1076031
v 0.0498755 0 0.1097193
v 0.04815578 0 0.111439
v 0.04815578 0.01242357 0.111439
v 0.0498755 0.01242357 0.1097193
v -0.04961264 0 0.1076031
v -0.04841423 0 0.1097193
v -0.04841423 0.01242357 0.1097193
v -0.04961264 0.01242357 0.1076031
v 0.05107391 0 0.1076031
v 0.0498755 0 0.1097193
v 0.0498755 0.01242357 0.1097193
v 0.05107391 0.01242357 0.1076031
v 0.05107391 0 0.1076031
v 0.0498755 0 0.1097193
v 0.04815578 0 0.111439
v 0.04603958 0 0.1126374
v 0.05107391 0 -0.107603
v 0.05107391 0 0.1076031
v 0.05107391 0.01242357 0.1076031
v 0.05107391 0.01242357 -0.107603
v 0.05107391 0 -0.107603
v 0.0498755 0 -0.1097192
v 0.0498755 0.01242357 -0.1097192
v 0.05107391 0.01242357 -0.107603
v 0.0498755 0.01242357 0.1097193
v 0.04815578 0.01242357 0.111439
v 0.04603958 0.01242357 0.1126374
v -0.04457831 0.01242357 0.1126374
v 0.04815578 0.01242357 -0.1114389
v 0.04603958 0.01242357 -0.1126374
v 0.04603958 0 -0.1126374
v 0.04815578 0 -0.1114389
v 0.04836559 0.01242357 0.1068894
v 0.04770017 0.01242357 0.1080644
v 0.04650092 0.01242357 0.1092636
v 0.04532599 0.01242357 0.109929
v -0.04961264 0.01242357 -0.107603
v -0.04841423 0.01242357 -0.1097192
v -0.04841423 0 -0.1097192
v -0.04961264 0 -0.107603
v -0.04961264 0.001300454 -0.003806561
v -0.04961264 0.01130044 -0.003806561
v -0.04961264 0.01130044 0.01924899
v -0.04961264 0.001300454 0.01924899
v 0.0498755 0.01242357 -0.1097192
v 0.04815578 0.01242357 -0.1114389
v 0.04815578 0 -0.1114389
v 0.0498755 0 -0.1097192
v -0.04690433 0.01242357 0.1068894
v -0.0462389 0.01242357 0.1080644
v -0.04503965 0.01242357 0.1092636
v -0.04386473 0.01242357 0.109929
v 0.009059191 0.008298039 -0.09918323
v -0.007853508 0.008298039 -0.09918323
v -0.007853508 0.004504323 -0.09918323
v 0.009059191 0.004504323 -0.09918323
v -0.0510143 0.01130044 -0.003806561
v -0.0510143 0.01130044 0.01924899
v -0.0510143 0.001300454 0.01924899
v -0.0510143 0.001300454 -0.003806561
v -0.04669452 0 -0.1114389
v -0.04457831 0 -0.1126374
v -0.04457831 0.01242357 -0.1126374
v -0.04669452 0.01242357 -0.1114389
v -0.04841423 0 -0.1097192
v -0.04669452 0 -0.1114389
v -0.04669452 0.01242357 -0.1114389
v -0.04841423 0.01242357 -0.1097192
v -0.0462389 0.01472461 -0.1080644
v -0.04503965 0.01472461 -0.1092636
v -0.04386473 0.01472461 -0.109929
v 0.04532599 0.01472461 -0.109929
v 0.04650092 0.01472461 -0.1092636
v 0.04770017 0.01472461 -0.1080644
v 0.04836559 0.01472461 -0.1068894
v 0.04836559 0.01472461 0.1068894
v 0.04770017 0.01472461 0.1080644
v 0.04650092 0.01472461 0.1092636
v 0.04532599 0.01472461 0.109929
v -0.04386473 0.01472461 0.109929
v -0.04503965 0.01472461 0.1092636
v -0.0462389 0.01472461 0.1080644
v -0.04690433 0.01472461 0.1068894
v -0.04690433 0.01472461 -0.1068894
v -0.04669452 0.01242357 0.111439
v -0.04457831 0.01242357 0.1126374
v -0.04457831 0 0.1126374
v -0.04669452 0 0.111439
v 0.04815578 0.01242357 0.111439
v 0.04603958 0.01242357 0.1126374
v 0.04603958 0 0.1126374
v 0.04815578 0 0.111439
v 0.05107391 0 -0.107603
v 0.0498755 0 -0.1097192
v 0.04815578 0 -0.1114389
v 0.04603958 0 -0.1126374
v -0.04457831 0 -0.1126374
v -0.04669452 0 -0.1114389
v -0.04841423 0 -0.1097192
v -0.04961264 0 -0.107603
v -0.04841423 0.01242357 -0.1097192
v -0.04669452 0.01242357 -0.1114389
v -0.04457831 0.01242357 -0.1126374
v 0.04603958 0.01242357 -0.1126374
v 0.04815578 0.01242357 -0.1114389
v 0.0498755 0.01242357 -0.1097192
v 0.05107391 0.01242357 -0.107603
v 0.05107391 0.01242357 0.1076031
v 0.03448772 0.008177817 0.1053888
v 0.03853106 0.008177817 0.1053888
v 0.03853106 0.004225612 0.1053888
v 0.03448772 0.004225612 0.1053888
v 0.04532599 0.01242357 -0.109929
v 0.04650092 0.01242357 -0.1092636
v 0.04770017 0.01242357 -0.1080644
v 0.04836559 0.01242357 -0.1068894
v -0.04841423 0.01242357 0.1097193
v -0.04669452 0.01242357 0.111439
v -0.04669452 0 0.111439
v -0.04841423 0 0.1097193
v 0.03448772 0.004225612 0.1126374
v 0.03448772 0.008177817 0.1126374
v 0.03853106 0.008177817 0.1126374
v 0.03853106 0.004225612 0.1126374
v -0.04690433 0.01242357 -0.1068894
v -0.0462389 0.01242357 -0.1080644
v -0.0462389 0.01472461 -0.1080644
v -0.04690433 0.01472461 -0.1068894
v -0.0462389 0.01242357 -0.1080644
v -0.04503965 0.01242357 -0.1092636
v -0.04503965 0.01472461 -0.1092636
v -0.0462389 0.01472461 -0.1080644
v -0.04503965 0.01242357 -0.1092636
v -0.04386473 0.01242357 -0.109929
v -0.04386473 0.01472461 -0.109929
v -0.04503965 0.01472461 -0.1092636
v -0.04386473 0.01242357 -0.109929
v 0.04532599 0.01242357 -0.109929
v 0.04532599 0.01472461 -0.109929
v -0.04386473 0.01472461 -0.109929
v 0.04532599 0.01242357 -0.109929
v 0.04650092 0.01242357 -0.1092636
v 0.04650092 0.01472461 -0.1092636
v 0.04532599 0.01472461 -0.109929
v 0.04650092 0.01242357 -0.1092636
v 0.04770017 0.01242357 -0.1080644
v 0.04770017 0.01472461 -0.1080644
v 0.04650092 0.01472461 -0.1092636
v 0.04770017 0.01242357 -0.1080644
v 0.04836559 0.01242357 -0.1068894
v 0.04836559 0.01472461 -0.1068894
v 0.04770017 0.01472461 -0.1080644
v 0.04836559 0.01242357 -0.1068894
v 0.04836559 0.01242357 0.1068894
v 0.04836559 0.01472461 0.1068894
v 0.04836559 0.01472461 -0.1068894
v 0.04836559 0.01242357 0.1068894
v 0.04770017 0.01242357 0.1080644
v 0.04770017 0.01472461 0.1080644
v 0.04836559 0.01472461 0.1068894
v 0.04770017 0.01242357 0.1080644
v 0.04650092 0.01242357 0.1092636
v 0.04650092 0.01472461 0.1092636
v 0.04770017 0.01472461 0.1080644
v 0.04650092 0.01242357 0.1092636
v 0.04532599 0.01242357 0.109929
v 0.04532599 0.01472461 0.109929
v 0.04650092 0.01472461 0.1092636
v 0.04532599 0.01242357 0.109929
v -0.04386473 0.01242357 0.109929
v -0.04386473 0.01472461 0.109929
v 0.04532599 0.01472461 0.109929
v -0.04386473 0.01242357 0.109929
v -0.04503965 0.01242357 0.1092636
v -0.04503965 0.01472461 0.1092636
v -0.04386473 0.01472461 0.109929
v -0.04503965 0.01242357 0.1092636
v -0.0462389 0.01242357 0.1080644
v -0.0462389 0.01472461 0.1080644
v -0.04503965 0.01472461 0.1092636
v -0.0462389 0.01242357 0.1080644
v -0.04690433 0.01242357 0.1068894
v -0.04690433 0.01472461 0.1068894
v -0.0462389 0.01472461 0.1080644
v -0.04690433 0.01242357 0.1068894
v -0.04690433 0.01242357 -0.1068894
v -0.04690433 0.01472461 -0.1068894
v -0.04690433 0.01472461 0.1068894
v -0.04961264 0.01242357 -0.107603
v -0.04961264 0.01242357 0.1076031
v -0.04961264 0 0.1076031
v -0.04961264 0 -0.107603
v -0.04961264 0.01130044 -0.003806561
v -0.04961264 0.001300454 -0.003806561
v -0.05107391 0.008941472 0.04784256
v -0.05107391 0.008941472 0.1005399
v -0.05107391 0.00329417 0.1005399
v -0.05107391 0.00329417 0.04784256
v -0.007853508 0.004504323 -0.1126374
v -0.007853508 0.008298039 -0.1126374
v 0.009059191 0.008298039 -0.1126374
v 0.009059191 0.004504323 -0.1126374
v -0.0510143 0.01130044 -0.003806561
v -0.0510143 0.001300454 -0.003806561
v -0.04961264 0.01130044 -0.003806561
v -0.04961264 0.01130044 0.01924899
v -0.0510143 0.01130044 0.01924899
v -0.0510143 0.01130044 -0.003806561
v -0.04961264 0.01130044 0.01924899
v -0.04961264 0.001300454 0.01924899
v -0.0510143 0.001300454 0.01924899
v -0.0510143 0.01130044 0.01924899
v -0.04961264 0.001300454 0.01924899
v -0.04961264 0.001300454 -0.003806561
v -0.0510143 0.001300454 -0.003806561
v -0.0510143 0.001300454 0.01924899
v -0.04961264 0.00329417 0.04784256
v -0.04961264 0.008941472 0.04784256
v -0.05107391 0.008941472 0.04784256
v -0.05107391 0.00329417 0.04784256
v -0.04961264 0.008941472 0.04784256
v -0.04961264 0.008941472 0.1005399
v -0.05107391 0.008941472 0.1005399
v -0.05107391 0.008941472 0.04784256
v -0.04961264 0.008941472 0.1005399
v -0.04961264 0.00329417 0.1005399
v -0.05107391 0.00329417 0.1005399
v -0.05107391 0.008941472 0.1005399
v -0.04961264 0.00329417 0.1005399
v -0.04961264 0.00329417 0.04784256
v -0.05107391 0.00329417 0.04784256
v -0.05107391 0.00329417 0.1005399
v 0.04603958 0 -0.1126374
v -0.04457831 0 -0.1126374
v -0.04457831 0.01242357 -0.1126374
v 0.04603958 0.01242357 -0.1126374
v -0.04961264 0.01242357 -0.107603
v -0.04961264 0.01242357 0.1076031
v -0.04841423 0.01242357 0.1097193
v -0.04669452 0.01242357 0.111439
v 0.03448772 0.004225612 0.1053888
v 0.03448772 0.008177817 0.1053888
v 0.03448772 0.008177817 0.1126374
v 0.03448772 0.004225612 0.1126374
v -0.04690433 0.01242357 -0.1068894
v -0.0462389 0.01242357 -0.1080644
v -0.04503965 0.01242357 -0.1092636
v -0.04386473 0.01242357 -0.109929
v -0.04457831 0.01242357 0.1126374
v 0.04603958 0.01242357 0.1126374
v 0.04603958 0 0.1126374
v -0.04457831 0 0.1126374
v -0.007853508 0.004504323 -0.09918323
v 0.009059191 0.004504323 -0.09918323
v 0.009059191 0.004504323 -0.1126374
v -0.007853508 0.004504323 -0.1126374
v -0.007853508 0.008298039 -0.09918323
v -0.007853508 0.004504323 -0.09918323
v -0.007853508 0.004504323 -0.1126374
v -0.007853508 0.008298039 -0.1126374
v 0.009059191 0.008298039 -0.09918323
v -0.007853508 0.008298039 -0.09918323
v -0.007853508 0.008298039 -0.1126374
v 0.009059191 0.008298039 -0.1126374
v 0.009059191 0.004504323 -0.09918323
v 0.009059191 0.008298039 -0.09918323
v 0.009059191 0.008298039 -0.1126374
v 0.009059191 0.004504323 -0.1126374
v 0.03853106 0.004225612 0.1053888
v 0.03448772 0.004225612 0.1053888
v 0.03448772 0.004225612 0.1126374
v 0.03853106 0.004225612 0.1126374
v 0.03853106 0.008177817 0.1053888
v 0.03853106 0.004225612 0.1053888
v 0.03853106 0.004225612 0.1126374
v 0.03853106 0.008177817 0.1126374
v 0.03448772 0.008177817 0.1053888
v 0.03853106 0.008177817 0.1053888
v 0.03853106 0.008177817 0.1126374
v 0.03448772 0.008177817 0.1126374

vn 0 -1 0
vn 0 -1 0
vn 0 -1 0
vn 0 -1 0
vn 0.7071007 0 0.7071129
vn 0.7071007 0 0.7071129
vn 0.7071007 0 0.7071129
vn 0.7071007 0 0.7071129
vn -0.8701581 0 0.4927726
vn -0.8701581 0 0.4927726
vn -0.8701581 0 0.4927726
vn -0.8701581 0 0.4927726
vn 0.8701581 0 0.4927726
vn 0.8701581 0 0.4927726
vn 0.8701581 0 0.4927726
vn 0.8701581 0 0.4927726
vn 0 -1 0
vn 0 -1 0
vn 0 -1 0
vn 0 -1 0
vn 1 0 0
vn 1 0 0
vn 1 0 0
vn 1 0 0
vn 0.8701581 0 -0.4927726
vn 0.8701581 0 -0.4927726
vn 0.8701581 0 -0.4927726
vn 0.8701581 0 -0.4927726
vn 0 1 0
vn 0 1 0
vn 0 1 0
vn 0 1 0
vn 0.4927819 0 -0.8701529
vn 0.4927819 0 -0.8701529
vn 0.4927819 0 -0.8701529
vn 0.4927819 0 -0.8701529
vn 0 1 0
vn 0 1 0
vn 0 1 0
vn 0 1 0
vn -0.8701581 0 -0.4927726
vn -0.8701581 0 -0.4927726
vn -0.8701581 0 -0.4927726
vn -0.8701581 0 -0.4927726
vn -1 0 0
vn -1 0 0
vn -1 0 0
vn -1 0 0
vn 0.7071007 0 -0.7071129
vn 0.7071007 0 -0.7071129
vn 0.7071007 0 -0.7071129
vn 0.7071007 0 -0.7071129
vn 0 1 0
vn 0 1 0
vn 0 1 0
vn 0 1 0
vn 0 0 -1
vn 0 0 -1
vn 0 0 -1
vn 0 0 -1
vn -1 0 0
vn -1 0 0
vn -1 0 0
vn -1 0 0
vn -0.4927819 0 -0.8701529
vn -0.4927819 0 -0.8701529
vn -0.4927819 0 -0.8701529
vn -0.4927819 0 -0.8701529
vn -0.7071007 0 -0.7071129
vn -0.7071007 0 -0.7071129
vn -0.7071007 0 -0.7071129
vn -0.7071007 0 -0.7071129
vn 0 1 0
vn 0 1 0
vn 0 1 0
vn 0 1 0
vn 0 1 0
vn 0 1 0
vn 0 1 0
vn 0 1 0
vn 0 1 0
vn 0 1 0
vn 0 1 0
vn 0 1 0
vn 0 1 0
vn 0 1 0
vn 0 1 0
vn 0 1 0
vn -0.4927819 0 0.8701529
vn -0.4927819 0 0.8701529
vn -0.4927819 0 0.8701529
vn -0.4927819 0 0.8701529
vn 0.4927819 0 0.8701529
vn 0.4927819 0 0.8701529
vn 0.4927819 0 0.8701529
vn 0.4927819 0 0.8701529
vn 0 -1 0
vn 0 -1 0
vn 0 -1 0
vn 0 -1 0
vn 0 -1 0
vn 0 -1 0
vn 0 -1 0
vn 0 -1 0
vn 0 1 0
vn 0 1 0
vn 0 1 0
vn 0 1 0
vn 0 1 0
vn 0 1 0
vn 0 1 0
vn 0 1 0
vn 0 0 1
vn 0 0 1
vn 0 0 1
vn 0 0 1
vn 0 1 0
vn 0 1 0
vn 0 1 0
vn 0 1 0
vn -0.7071007 0 0.7071129
vn -0.7071007 0 0.7071129
vn -0.7071007 0 0.7071129
vn -0.7071007 0 0.7071129
vn 0 0 1
vn 0 0 1
vn 0 0 1
vn 0 0 1
vn -0.870149 0 -0.4927887
vn -0.870149 0 -0.4927887
vn -0.870149 0 -0.4927887
vn -0.870149 0 -0.4927887
vn -0.707098 0 -0.7071156
vn -0.707098 0 -0.7071156
vn -0.707098 0 -0.7071156
vn -0.707098 0 -0.7071156
vn -0.4928076 0 -0.8701383
vn -0.4928076 0 -0.8701383
vn -0.4928076 0 -0.8701383
vn -0.4928076 0 -0.8701383
vn 0 0 -1
vn 0 0 -1
vn 0 0 -1
vn 0 0 -1
vn 0.4928076 0 -0.8701383
vn 0.4928076 0 -0.8701383
vn 0.4928076 0 -0.8701383
vn 0.4928076 0 -0.8701383
vn 0.707098 0 -0.7071156
vn 0.707098 0 -0.7071156
vn 0.707098 0 -0.7071156
vn 0.707098 0 -0.7071156
vn 0.870149 0 -0.4927887
vn 0.870149 0 -0.4927887
vn 0.870149 0 -0.4927887
vn 0.870149 0 -0.4927887
vn 1 0 0
vn 1 0 0
vn 1 0 0
vn 1 0 0
vn 0.870149 0 0.4927887
vn 0.870149 0 0.4927887
vn 0.870149 0 0.4927887
vn 0.870149 0 0.4927887
vn 0.707098 0 0.7071156
vn 0.707098 0 0.7071156
vn 0.707098 0 0.7071156
vn 0.707098 0 0.7071156
vn 0.4927993 0 0.8701431
vn 0.4927993 0 0.8701431
vn 0.4927993 0 0.8701431
vn 0.4927993 0 0.8701431
vn 0 0 1
vn 0 0 1
vn 0 0 1
vn 0 0 1
vn -0.4927993 0 0.8701431
vn -0.4927993 0 0.8701431
vn -0.4927993 0 0.8701431
vn -0.4927993 0 0.8701431
vn -0.707098 0 0.7071156
vn -0.707098 0 0.7071156
vn -0.707098 0 0.7071156
vn -0.707098 0 0.7071156
vn -0.870149 0 0.4927887
vn -0.870149 0 0.4927887
vn -0.870149 0 0.4927887
vn -0.870149 0 0.4927887
vn -1 0 0
vn -1 0 0
vn -1 0 0
vn -1 0 0
vn -1 0 0
vn -1 0 0
vn -1 0 0
vn -1 0 0
vn 0 0 -1
vn 0 0 -1
vn -1 0 0
vn -1 0 0
vn -1 0 0
vn -1 0 0
vn 0 0 -1
vn 0 0 -1
vn 0 0 -1
vn 0 0 -1
vn 0 0 -1
vn 0 0 -1
vn 0 1 0
vn 0 1 0
vn 0 1 0
vn 0 1 0
vn 0 0 1
vn 0 0 1
vn 0 0 1
vn 0 0 1
vn 0 -1 0
vn 0 -1 0
vn 0 -1 0
vn 0 -1 0
vn 0 0 -1
vn 0 0 -1
vn 0 0 -1
vn 0 0 -1
vn 0 1 0
vn 0 1 0
vn 0 1 0
vn 0 1 0
vn 0 0 1
vn 0 0 1
vn 0 0 1
vn 0 0 1
vn 0 -1 0
vn 0 -1 0
vn 0 -1 0
vn 0 -1 0
vn 0 0 -1
vn 0 0 -1
vn 0 0 -1
vn 0 0 -1
vn 0 1 0
vn 0 1 0
vn 0 1 0
vn 0 1 0
vn 1 0 0
vn 1 0 0
vn 1 0 0
vn 1 0 0
vn 0 1 0
vn 0 1 0
vn 0 1 0
vn 0 1 0
vn 0 0 1
vn 0 0 1
vn 0 0 1
vn 0 0 1
vn 0 1 0
vn 0 1 0
vn 0 1 0
vn 0 1 0
vn 1 0 0
vn 1 0 0
vn 1 0 0
vn 1 0 0
vn 0 -1 0
vn 0 -1 0
vn 0 -1 0
vn 0 -1 0
vn -1 0 0
vn -1 0 0
vn -1 0 0
vn -1 0 0
vn 0 1 0
vn 0 1 0
vn 0 1 0
vn 0 1 0
vn -1 0 0
vn -1 0 0
vn -1 0 0
vn -1 0 0
vn 0 -1 0
vn 0 -1 0
vn 0 -1 0
vn 0 -1 0

vt 0.7922193 0.8411446
vt 0.7922902 0.8410194
vt 0.792392 0.8409177
vt 0.7925171 0.8408468
vt 0.8189717 0.7968163
vt 0.8188689 0.7968163
vt 0.8188689 0.7975591
vt 0.8189717 0.7975591
vt 0.8056716 0.8279047
vt 0.8055441 0.8279047
vt 0.8055441 0.8286532
vt 0.8056716 0.8286532
vt 0.8190982 0.7968163
vt 0.8189717 0.7968163
vt 0.8189717 0.7975591
vt 0.8190982 0.7975591
vt 0.7925171 0.8468024
vt 0.792392 0.8467314
vt 0.7922902 0.8466297
vt 0.7922193 0.8465046
vt 0.8319644 0.7968163
vt 0.8190982 0.7968163
vt 0.8190982 0.7975591
vt 0.8319644 0.7975591
vt 0.8319644 0.7968163
vt 0.8320909 0.7968163
vt 0.8320909 0.7975591
vt 0.8319644 0.7975591
vt 0.7790671 0.8467314
vt 0.7789654 0.8466297
vt 0.7788945 0.8465046
vt 0.7788945 0.8411446
vt 0.8321937 0.8602428
vt 0.832491 0.8602428
vt 0.832491 0.8584975
vt 0.8321937 0.8584975
vt 0.7792345 0.8466421
vt 0.779165 0.8466028
vt 0.779094 0.8465319
vt 0.7790547 0.8464624
vt 0.8186378 0.8286532
vt 0.8187653 0.8286532
vt 0.8187653 0.8279047
vt 0.8186378 0.8279047
vt 0.8123841 0.827983
vt 0.8123841 0.8285855
vt 0.8109949 0.8285855
vt 0.8109949 0.827983
vt 0.8320909 0.7975591
vt 0.8321937 0.7975591
vt 0.8321937 0.7968163
vt 0.8320909 0.7968163
vt 0.7792345 0.841007
vt 0.779165 0.8410463
vt 0.779094 0.8411173
vt 0.7790547 0.8411868
vt 0.8321937 0.8142278
vt 0.8455185 0.8142278
vt 0.8455185 0.8112389
vt 0.8321937 0.8112389
vt 0.8188689 0.7845318
vt 0.8055441 0.7845318
vt 0.8055441 0.7787524
vt 0.8188689 0.7787524
vt 0.8455185 0.8584975
vt 0.8452212 0.8584975
vt 0.8452212 0.8602428
vt 0.8455185 0.8602428
vt 0.8187653 0.8279047
vt 0.8188689 0.8279047
vt 0.8188689 0.8286532
vt 0.8187653 0.8286532
vt 0.1589405 0.9695888
vt 0.1590132 0.9696615
vt 0.1590535 0.9697327
vt 0.1590535 0.9751382
vt 0.1590132 0.9752094
vt 0.1589405 0.9752821
vt 0.1588693 0.9753224
vt 0.1459129 0.9753224
vt 0.1458417 0.9752821
vt 0.145769 0.9752094
vt 0.1457286 0.9751382
vt 0.1457286 0.9697327
vt 0.145769 0.9696615
vt 0.1458417 0.9695888
vt 0.1459129 0.9695485
vt 0.1588693 0.9695485
vt 0.8452812 0.7824993
vt 0.8449892 0.7824993
vt 0.8449892 0.7807851
vt 0.8452812 0.7807851
vt 0.8321937 0.7824993
vt 0.8324857 0.7824993
vt 0.8324857 0.7807851
vt 0.8321937 0.7807851
vt 0.8052463 0.8468024
vt 0.8053715 0.8467314
vt 0.8054733 0.8466297
vt 0.8055441 0.8465046
vt 0.8055441 0.8411446
vt 0.8054733 0.8410194
vt 0.8053715 0.8409177
vt 0.8052463 0.8408468
vt 0.7920467 0.8409177
vt 0.7921484 0.8410194
vt 0.7922193 0.8411446
vt 0.7922193 0.8465046
vt 0.7921484 0.8466297
vt 0.7920467 0.8467314
vt 0.7919216 0.8468024
vt 0.7791923 0.8468024
vt 0.8321937 0.8658824
vt 0.8188689 0.8658824
vt 0.8188689 0.8528579
vt 0.8321937 0.8528579
vt 0.7920591 0.8464624
vt 0.7920198 0.8465319
vt 0.7919489 0.8466028
vt 0.7918794 0.8466421
vt 0.8455185 0.7824993
vt 0.8452812 0.7824993
vt 0.8452812 0.7807851
vt 0.8455185 0.7807851
vt 0.8340797 0.7813681
vt 0.8340797 0.7819134
vt 0.8335217 0.7819134
vt 0.8335217 0.7813681
vt 0.1855575 0.9568193
vt 0.1856295 0.9568193
vt 0.1856295 0.9569604
vt 0.1855575 0.9569604
vt 0.1856295 0.9568193
vt 0.1857031 0.9568193
vt 0.1857031 0.9569604
vt 0.1856295 0.9569604
vt 0.2256774 0.89454
vt 0.2255064 0.89454
vt 0.2255064 0.8948749
vt 0.2256774 0.8948749
vt 0.2255064 0.89454
vt 0.2125237 0.89454
vt 0.2125237 0.8948749
vt 0.2255064 0.8948749
vt 0.2125237 0.89454
vt 0.2123527 0.89454
vt 0.2123527 0.8948749
vt 0.2125237 0.8948749
vt 0.1990278 0.9257281
vt 0.1989543 0.9257281
vt 0.1989543 0.9258692
vt 0.1990278 0.9258692
vt 0.1989543 0.9257281
vt 0.1988823 0.9257281
vt 0.1988823 0.9258692
vt 0.1989543 0.9258692
vt 0.1988823 0.9257281
vt 0.1857751 0.9257281
vt 0.1857751 0.9258692
vt 0.1988823 0.9258692
vt 0.1857751 0.9257281
vt 0.1857031 0.9257281
vt 0.1857031 0.9258692
vt 0.1857751 0.9258692
vt 0.1990278 0.9100899
vt 0.1991979 0.9100899
vt 0.1991979 0.9104162
vt 0.1990278 0.9104162
vt 0.1991979 0.9100899
vt 0.1993647 0.9100899
vt 0.1993647 0.9104162
vt 0.1991979 0.9104162
vt 0.1993647 0.9100899
vt 0.2120159 0.9100899
vt 0.2120159 0.9104162
vt 0.1993647 0.9104162
vt 0.2120159 0.9100899
vt 0.2121826 0.9100899
vt 0.2121826 0.9104162
vt 0.2120159 0.9104162
vt 0.2121826 0.9100899
vt 0.2123527 0.9100899
vt 0.2123527 0.9104162
vt 0.2121826 0.9104162
vt 0.1723782 0.9568193
vt 0.1724503 0.9568193
vt 0.1724503 0.9569604
vt 0.1723782 0.9569604
vt 0.1724503 0.9568193
vt 0.1855575 0.9568193
vt 0.1855575 0.9569604
vt 0.1724503 0.9569604
vt 0.8186378 0.8286532
vt 0.8056716 0.8286532
vt 0.8056716 0.8279047
vt 0.8186378 0.8279047
vt 0.8377666 0.8360517
vt 0.8377666 0.8205061
vt 0.8188689 0.7979017
vt 0.8055441 0.7979017
vt 0.8055441 0.7964737
vt 0.8188689 0.7964737
vt 0.840062 0.8591303
vt 0.840062 0.8596632
vt 0.8376861 0.8596632
vt 0.8376861 0.8591303
vt 0.8399456 0.8360517
vt 0.8399456 0.8205061
vt 0.7922193 0.7975928
vt 0.7788945 0.7975928
vt 0.7788945 0.7967827
vt 0.7922193 0.7967827
vt 0.8244419 0.8360517
vt 0.8244419 0.8205061
vt 0.8266208 0.8205061
vt 0.8266208 0.8360517
vt 0.7922193 0.7975928
vt 0.8055441 0.7975928
vt 0.8055441 0.7967827
vt 0.7922193 0.7967827
vt 0.8368449 0.8360517
vt 0.8368449 0.8515973
vt 0.8408673 0.8515973
vt 0.8408673 0.8360517
vt 0.7922193 0.8129181
vt 0.7788945 0.8129181
vt 0.7788945 0.8125486
vt 0.7922193 0.8125486
vt 0.8235201 0.8515973
vt 0.8235201 0.8360517
vt 0.8275425 0.8360517
vt 0.8275425 0.8515973
vt 0.7922193 0.8129181
vt 0.8055441 0.8129181
vt 0.8055441 0.8125486
vt 0.7922193 0.8125486
vt 0.832491 0.8584975
vt 0.8452212 0.8584975
vt 0.8452212 0.8602428
vt 0.832491 0.8602428
vt 0.7919216 0.8408468
vt 0.7791923 0.8408468
vt 0.7790671 0.8409177
vt 0.7789654 0.8410194
vt 0.8321937 0.7780095
vt 0.8321937 0.7852747
vt 0.8188689 0.7852747
vt 0.8188689 0.7780095
vt 0.7918794 0.841007
vt 0.7919489 0.8410463
vt 0.7920198 0.8411173
vt 0.7920591 0.8411868
vt 0.8449892 0.7824993
vt 0.8324857 0.7824993
vt 0.8324857 0.7807851
vt 0.8449892 0.7807851
vt 0.7793736 0.7738694
vt 0.7793736 0.789415
vt 0.7917402 0.789415
vt 0.7917402 0.7738694
vt 0.8055441 0.8612487
vt 0.8055441 0.8574915
vt 0.8188689 0.8574915
vt 0.8188689 0.8612487
vt 0.7926984 0.789415
vt 0.7926984 0.7738694
vt 0.805065 0.7738694
vt 0.805065 0.789415
vt 0.7922193 0.8574915
vt 0.7922193 0.8612487
vt 0.8055441 0.8612487
vt 0.8055441 0.8574915
vt 0.7922193 0.8319954
vt 0.7922193 0.8245625
vt 0.7788945 0.8245625
vt 0.7788945 0.8319954
vt 0.8188689 0.816366
vt 0.8188689 0.8091007
vt 0.8055441 0.8091007
vt 0.8055441 0.816366
vt 0.8055441 0.8245625
vt 0.8055441 0.8319954
vt 0.7922193 0.8319954
vt 0.7922193 0.8245625

usemtl endesga64
f 35/35/35 34/34/34 33/33/33 
f 36/36/36 35/35/35 33/33/33 
f 123/123/123 122/122/122 121/121/121 
f 124/124/124 123/123/123 121/121/121 
f 71/71/71 70/70/70 69/69/69 
f 72/72/72 71/71/71 69/69/69 
f 2/2/2 3/3/3 4/4/4 
f 1/1/1 2/2/2 4/4/4 
f 20/20/20 1/1/1 4/4/4 
f 19/19/19 20/20/20 4/4/4 
f 18/18/18 19/19/19 4/4/4 
f 17/17/17 18/18/18 4/4/4 
f 97/97/97 17/17/17 4/4/4 
f 98/98/98 97/97/97 4/4/4 
f 99/99/99 98/98/98 4/4/4 
f 100/100/100 99/99/99 4/4/4 
f 101/101/101 100/100/100 4/4/4 
f 102/102/102 101/101/101 4/4/4 
f 103/103/103 102/102/102 4/4/4 
f 104/104/104 103/103/103 4/4/4 
f 63/63/63 62/62/62 61/61/61 
f 64/64/64 63/63/63 61/61/61 
f 115/115/115 114/114/114 113/113/113 
f 116/116/116 115/115/115 113/113/113 
f 15/15/15 14/14/14 13/13/13 
f 16/16/16 15/15/15 13/13/13 
f 7/7/7 6/6/6 5/5/5 
f 8/8/8 7/7/7 5/5/5 
f 40/40/40 31/31/31 30/30/30 
f 40/40/40 32/32/32 31/31/31 
f 40/40/40 56/56/56 32/32/32 
f 244/244/244 32/32/32 56/56/56 
f 244/244/244 56/56/56 55/55/55 
f 54/54/54 244/244/244 55/55/55 
f 54/54/54 243/243/243 244/244/244 
f 53/53/53 243/243/243 54/54/54 
f 53/53/53 242/242/242 243/243/243 
f 241/241/241 242/242/242 53/53/53 
f 241/241/241 53/53/53 249/249/249 
f 105/105/105 241/241/241 249/249/249 
f 105/105/105 249/249/249 250/250/250 
f 106/106/106 105/105/105 250/250/250 
f 106/106/106 250/250/250 251/251/251 
f 106/106/106 251/251/251 252/252/252 
f 106/106/106 252/252/252 107/107/107 
f 107/107/107 252/252/252 108/108/108 
f 252/252/252 117/117/117 108/108/108 
f 108/108/108 117/117/117 109/109/109 
f 109/109/109 117/117/117 118/118/118 
f 118/118/118 119/119/119 109/109/109 
f 109/109/109 119/119/119 110/110/110 
f 119/119/119 120/120/120 110/110/110 
f 120/120/120 111/111/111 110/110/110 
f 111/111/111 120/120/120 37/37/37 
f 111/111/111 37/37/37 112/112/112 
f 37/37/37 29/29/29 112/112/112 
f 38/38/38 29/29/29 37/37/37 
f 30/30/30 29/29/29 38/38/38 
f 39/39/39 30/30/30 38/38/38 
f 39/39/39 40/40/40 30/30/30 
f 67/67/67 66/66/66 65/65/65 
f 68/68/68 67/67/67 65/65/65 
f 23/23/23 22/22/22 21/21/21 
f 24/24/24 23/23/23 21/21/21 
f 59/59/59 58/58/58 57/57/57 
f 60/60/60 59/59/59 57/57/57 
f 91/91/91 90/90/90 89/89/89 
f 92/92/92 91/91/91 89/89/89 
f 51/51/51 50/50/50 49/49/49 
f 52/52/52 51/51/51 49/49/49 
f 42/42/42 43/43/43 44/44/44 
f 41/41/41 42/42/42 44/44/44 
f 75/75/75 74/74/74 73/73/73 
f 76/76/76 75/75/75 73/73/73 
f 77/77/77 76/76/76 73/73/73 
f 78/78/78 77/77/77 73/73/73 
f 79/79/79 78/78/78 73/73/73 
f 80/80/80 79/79/79 73/73/73 
f 81/81/81 80/80/80 73/73/73 
f 82/82/82 81/81/81 73/73/73 
f 83/83/83 82/82/82 73/73/73 
f 84/84/84 83/83/83 73/73/73 
f 85/85/85 84/84/84 73/73/73 
f 86/86/86 85/85/85 73/73/73 
f 87/87/87 86/86/86 73/73/73 
f 88/88/88 87/87/87 73/73/73 
f 94/94/94 95/95/95 96/96/96 
f 93/93/93 94/94/94 96/96/96 
f 26/26/26 27/27/27 28/28/28 
f 25/25/25 26/26/26 28/28/28 
f 10/10/10 11/11/11 12/12/12 
f 9/9/9 10/10/10 12/12/12 
f 131/131/131 130/130/130 129/129/129 
f 132/132/132 131/131/131 129/129/129 
f 135/135/135 134/134/134 133/133/133 
f 136/136/136 135/135/135 133/133/133 
f 139/139/139 138/138/138 137/137/137 
f 140/140/140 139/139/139 137/137/137 
f 143/143/143 142/142/142 141/141/141 
f 144/144/144 143/143/143 141/141/141 
f 147/147/147 146/146/146 145/145/145 
f 148/148/148 147/147/147 145/145/145 
f 151/151/151 150/150/150 149/149/149 
f 152/152/152 151/151/151 149/149/149 
f 155/155/155 154/154/154 153/153/153 
f 156/156/156 155/155/155 153/153/153 
f 159/159/159 158/158/158 157/157/157 
f 160/160/160 159/159/159 157/157/157 
f 163/163/163 162/162/162 161/161/161 
f 164/164/164 163/163/163 161/161/161 
f 167/167/167 166/166/166 165/165/165 
f 168/168/168 167/167/167 165/165/165 
f 171/171/171 170/170/170 169/169/169 
f 172/172/172 171/171/171 169/169/169 
f 175/175/175 174/174/174 173/173/173 
f 176/176/176 175/175/175 173/173/173 
f 179/179/179 178/178/178 177/177/177 
f 180/180/180 179/179/179 177/177/177 
f 183/183/183 182/182/182 181/181/181 
f 184/184/184 183/183/183 181/181/181 
f 187/187/187 186/186/186 185/185/185 
f 188/188/188 187/187/187 185/185/185 
f 191/191/191 190/190/190 189/189/189 
f 192/192/192 191/191/191 189/189/189 
f 46/46/46 194/194/194 193/193/193 
f 46/46/46 47/47/47 194/194/194 
f 48/48/48 194/194/194 47/47/47 
f 48/48/48 195/195/195 194/194/194 
f 195/195/195 48/48/48 45/45/45 
f 195/195/195 45/45/45 196/196/196 
f 196/196/196 45/45/45 193/193/193 
f 45/45/45 46/46/46 193/193/193 
f 201/201/201 200/200/200 199/199/199 
f 202/202/202 201/201/201 199/199/199 
f 207/207/207 197/197/197 198/198/198 
f 208/208/208 207/207/207 198/198/198 
f 211/211/211 210/210/210 209/209/209 
f 212/212/212 211/211/211 209/209/209 
f 215/215/215 214/214/214 213/213/213 
f 216/216/216 215/215/215 213/213/213 
f 219/219/219 218/218/218 217/217/217 
f 220/220/220 219/219/219 217/217/217 
f 223/223/223 222/222/222 221/221/221 
f 224/224/224 223/223/223 221/221/221 
f 227/227/227 226/226/226 225/225/225 
f 228/228/228 227/227/227 225/225/225 
f 231/231/231 230/230/230 229/229/229 
f 232/232/232 231/231/231 229/229/229 
f 235/235/235 234/234/234 233/233/233 
f 236/236/236 235/235/235 233/233/233 
f 205/205/205 239/239/239 240/240/240 
f 205/205/205 204/204/204 239/239/239 
f 203/203/203 239/239/239 204/204/204 
f 203/203/203 238/238/238 239/239/239 
f 238/238/238 203/203/203 206/206/206 
f 238/238/238 206/206/206 237/237/237 
f 237/237/237 206/206/206 240/240/240 
f 206/206/206 205/205/205 240/240/240 
f 126/126/126 254/254/254 253/253/253 
f 126/126/126 127/127/127 254/254/254 
f 127/127/127 255/255/255 254/254/254 
f 127/127/127 128/128/128 255/255/255 
f 255/255/255 128/128/128 125/125/125 
f 255/255/255 125/125/125 256/256/256 
f 256/256/256 125/125/125 126/126/126 
f 253/253/253 256/256/256 126/126/126 
f 278/278/278 279/279/279 280/280/280 
f 277/277/277 278/278/278 280/280/280 
f 282/282/282 283/283/283 284/284/284 
f 281/281/281 282/282/282 284/284/284 
f 246/246/246 247/247/247 248/248/248 
f 245/245/245 246/246/246 248/248/248 
f 258/258/258 259/259/259 260/260/260 
f 257/257/257 258/258/258 260/260/260 
f 262/262/262 263/263/263 264/264/264 
f 261/261/261 262/262/262 264/264/264 
f 266/266/266 267/267/267 268/268/268 
f 265/265/265 266/266/266 268/268/268 
f 270/270/270 271/271/271 272/272/272 
f 269/269/269 270/270/270 272/272/272 
f 274/274/274 275/275/275 276/276/276 
f 273/273/273 274/274/274 276/276/276 

